HIERARCHY
ROOT hip
{
	OFFSET 0.000000 0.000000 0.000000 
	CHANNELS 6 Xposition Yposition Zposition Xrotation Zrotation Yrotation
	JOINT abdomen
	{
		OFFSET 0.000000 3.402643 0.000000 
		CHANNELS 3 Xrotation Zrotation Yrotation
		JOINT chest
		{
			OFFSET 0.000000 8.438565 -0.680529 
			CHANNELS 3 Xrotation Zrotation Yrotation
			JOINT neck
			{
				OFFSET 0.000000 10.207942 -0.272212 
				CHANNELS 3 Xrotation Zrotation Yrotation
				JOINT head
				{
					OFFSET 0.000000 3.130431 0.000000 
					CHANNELS 3 Xrotation Zrotation Yrotation
					End Site
					{
						OFFSET 0.000000 3.130435 0.000000 
					}
				}
			}
			JOINT lCollar
			{
				OFFSET 3.470700 6.669187 -0.816635 
				CHANNELS 3 Yrotation Zrotation Xrotation
				JOINT lShldr
				{
					OFFSET 3.198488 0.000000 0.000000 
					CHANNELS 3 Zrotation Yrotation Xrotation
					JOINT lForeArm
					{
						OFFSET 10.139888 0.000000 0.000000 
						CHANNELS 3 Yrotation Zrotation Xrotation
						JOINT lHand
						{
							OFFSET 8.370511 0.000000 0.000000 
							CHANNELS 3 Zrotation Yrotation Xrotation
							End Site
							{
								OFFSET 4.083176 0.000000 0.000000 
							}
						}
					}
				}
			}
			JOINT rCollar
			{
				OFFSET -3.470700 6.669187 -0.816635 
				CHANNELS 3 Yrotation Zrotation Xrotation
				JOINT rShldr
				{
					OFFSET -3.198488 0.000000 0.000000 
					CHANNELS 3 Zrotation Yrotation Xrotation
					JOINT rForeArm
					{
						OFFSET -10.139888 0.000000 0.000000 
						CHANNELS 3 Yrotation Zrotation Xrotation
						JOINT rHand
						{
							OFFSET -8.370511 0.000000 0.000000 
							CHANNELS 3 Zrotation Yrotation Xrotation
							End Site
							{
								OFFSET -4.083176 0.000000 0.000000 
							}
						}
					}
				}
			}
		}
	}
	JOINT lThigh
	{
		OFFSET 5.308129 -1.633274 1.361059 
		CHANNELS 3 Xrotation Zrotation Yrotation
		JOINT lShin
		{
			OFFSET -2.041588 -20.007561 0.000000 
			CHANNELS 3 Xrotation Zrotation Yrotation
			JOINT lFoot
			{
				OFFSET 0.000000 -19.190928 -1.224953 
				CHANNELS 3 Xrotation Yrotation Zrotation
				End Site
				{
					OFFSET 0.000000 -2.449906 4.627600 
				}
			}
		}
	}
	JOINT rThigh
	{
		OFFSET -5.308129 -1.633274 1.361059 
		CHANNELS 3 Xrotation Zrotation Yrotation
		JOINT rShin
		{
			OFFSET 2.041588 -20.007561 0.000000 
			CHANNELS 3 Xrotation Zrotation Yrotation
			JOINT rFoot
			{
				OFFSET 0.000000 -19.190928 -1.224953 
				CHANNELS 3 Xrotation Yrotation Zrotation
				End Site
				{
					OFFSET 0.000000 -2.449906 4.627600 
				}
			}
		}
	}
}
MOTION
Frames: 18
Frame Time: 0.033333
0.385847 51.856812 -0.083214 -5.654297 3.837891 -132.744141 26.738546 -9.339060 -5.818543 -22.509766 8.203126 -1.347656 51.553619 8.070152 2.616707 -60.761719 -7.109375 4.471447 2.000000 -2.000000 0.000000 -67.246094 32.646484 -47.050781 -62.838757 -0.920367 -2.583475 -3.287521 33.766693 -7.954953 -2.000000 2.000000 0.000000 55.878906 -26.484377 -6.723104 74.792480 0.443222 -2.621090 -4.259034 -72.006271 6.221458 -2.801891 -0.361130 5.230045 17.100151 -6.103724 -2.148659 -12.133322 4.575433 3.653615 -7.654595 -12.279622 -14.161851 29.263109 4.852620 2.683233 -6.520928 -8.697643 19.516338 
0.910084 51.840996 -0.049479 -5.283203 2.968750 -132.997543 27.294422 -9.647159 -5.998401 -22.509766 8.378906 -0.800781 51.553619 8.070152 2.616707 -62.070313 -7.675780 4.257813 2.000000 -2.000000 0.000000 -66.718750 32.500000 -47.309208 -62.663002 -0.891120 -2.585177 -2.914623 33.491631 -7.847887 -2.000000 2.000000 0.000000 56.083984 -26.035158 -7.094130 74.442604 0.261382 -2.690309 -4.027280 -72.210434 5.345166 -2.563130 -0.400669 5.583288 17.790455 -6.067656 -2.041676 -12.461924 4.203686 3.536817 -7.653790 -12.433426 -15.379173 30.492813 4.794021 2.947940 -6.375529 -9.480172 18.641150 
1.542081 51.833092 0.121958 -4.941406 1.914063 -133.056305 28.036114 -9.951812 -6.189087 -22.500000 8.720703 -0.390625 51.553619 8.070152 2.616707 -63.378902 -8.222655 4.012276 2.000000 -2.000000 0.000000 -66.611320 32.519527 -47.699829 -62.826416 -1.071258 -2.486692 -2.764749 33.491024 -8.026831 -2.000000 2.000000 0.000000 56.191406 -26.142578 -7.539064 74.436310 0.444217 -2.806895 -5.511444 -72.754852 7.002714 -2.355735 -0.381818 5.765076 18.879648 -6.034142 -2.215907 -12.913685 4.285836 3.231235 -7.615535 -12.718336 -16.246063 31.016811 4.764306 2.820027 -6.815534 -10.131090 17.773888 
2.206530 51.801460 0.309218 -4.580078 1.044936 -133.525589 28.768032 -10.247310 -6.376445 -22.314455 8.886719 0.175781 51.553619 8.070152 2.616707 -64.697266 -8.769530 3.994141 2.000000 -2.000000 0.000000 -66.445320 32.177734 -47.910156 -62.663258 -0.911184 -2.593788 -2.174676 33.479099 -8.340750 -2.000000 2.000000 0.000000 56.474609 -26.123049 -7.943753 74.627922 0.290898 -3.030883 -5.078810 -72.459427 6.771422 -2.129932 -0.401037 5.924269 19.927797 -5.989702 -2.266768 -13.059177 4.515769 3.215636 -7.586683 -12.982722 -17.122334 31.736177 4.726284 3.074355 -7.114031 -10.403881 17.050053 
2.797914 51.690750 0.388901 -4.238281 0.000000 -133.779297 29.663710 -10.366029 -6.506166 -22.138672 8.876953 0.372601 51.553619 8.070152 2.616707 -66.367188 -9.072265 4.226976 2.000000 -2.000000 0.000000 -65.996094 31.269531 -48.212887 -62.663258 -0.911184 -2.593788 -2.128442 33.351990 -8.479843 -2.000000 2.000000 0.000000 56.923828 -26.367188 -8.046876 74.616455 0.453251 -2.962824 -5.092939 -72.352066 7.044704 -2.136280 -0.634656 6.442474 21.336182 -5.716125 -2.564446 -13.264496 4.275884 2.555983 -7.791255 -13.156692 -18.141998 32.767120 4.667119 2.961583 -7.250312 -10.190187 16.333479 
3.428253 51.595860 0.558804 -3.876953 -0.878906 -134.082031 30.726501 -10.595087 -6.481105 -21.787109 8.701172 0.585938 51.553619 8.070152 2.616707 -68.359375 -9.326172 4.490605 2.000000 -2.000000 0.000000 -65.585938 29.804688 -49.790066 -63.177708 -1.070691 -2.476946 -1.904358 33.175495 -8.853485 -2.000000 2.000000 0.000000 56.943356 -25.966799 -7.988281 74.616463 0.443502 -2.963388 -4.829958 -72.370255 6.842094 -2.337309 -0.674021 6.475076 22.740805 -5.849884 -2.628393 -12.906465 4.342558 2.496358 -7.987891 -13.678662 -19.162754 34.012691 4.599307 2.921277 -7.774010 -10.207115 15.648066 
4.098204 51.477242 0.872293 -3.535156 -1.777344 -134.209290 31.942780 -10.645100 -6.374808 -21.445314 8.339845 0.761719 51.553619 8.070152 2.616707 -70.908203 -9.501953 4.549170 2.000000 -2.000000 0.000000 -65.078125 27.900393 -52.046207 -64.231834 -1.089056 -2.456321 -1.692823 32.169010 -10.168570 -2.000000 2.000000 0.000000 56.621094 -24.824219 -7.861328 74.450722 0.444067 -2.973133 -5.899756 -72.952576 7.507475 -2.725505 -0.723129 7.333754 24.492809 -5.550611 -2.886626 -12.765615 3.785934 1.996870 -8.211382 -13.849024 -20.011625 35.073284 4.530624 3.039575 -8.389586 -10.483541 14.480328 
4.781423 51.358616 1.335494 -3.359375 -2.646484 -134.170380 33.334167 -10.930977 -6.227102 -21.103518 7.812500 0.751953 51.553619 8.070152 2.616707 -73.437508 -9.619140 4.599609 2.000000 -2.000000 0.000000 -65.126953 25.742186 -55.146484 -65.480751 -0.784876 -2.777280 -1.019700 31.259150 -11.673809 -2.000000 2.000000 0.000000 56.396484 -23.623047 -7.587889 74.095947 0.242307 -2.867465 -5.874749 -73.284531 6.649356 -3.350380 -0.742655 7.702012 25.922335 -5.502890 -3.033791 -12.637648 3.606803 2.106973 -8.827658 -14.420442 -20.941225 36.320995 4.462020 3.133793 -8.188689 -10.831968 14.016337 
5.469640 51.239994 1.929161 -3.017578 -3.173828 -133.808594 34.735462 -10.977597 -6.129951 -20.585938 7.275390 0.723893 51.553619 8.070152 2.616707 -75.966797 -9.531249 4.482423 2.000000 -2.000000 0.000000 -64.716797 23.417971 -58.150421 -66.883865 -0.954142 -2.659736 -0.909846 30.165173 -13.549929 -2.000000 2.000000 0.000000 55.859375 -22.695313 -7.080078 74.099167 0.424568 -2.974261 -7.154989 -73.498863 7.586317 -3.989710 -0.732364 7.182108 26.972374 -5.725599 -3.040555 -12.247834 3.494166 2.186333 -9.531099 -15.135589 -21.728310 37.533169 4.374406 3.401999 -7.515885 -11.739999 13.238945 
5.847478 51.042297 2.081766 -2.832031 -3.691406 -133.262344 35.971077 -11.165619 -6.131397 -20.068359 6.728882 0.713862 51.553619 8.070152 2.616707 -78.330078 -9.619139 4.539383 2.000000 -2.000000 0.000000 -63.623047 21.269531 -60.175785 -68.493294 -0.657987 -2.950869 0.058085 28.874701 -14.743143 -2.000000 2.000000 0.000000 55.068359 -22.597656 -5.458985 74.452148 0.271399 -3.032011 -6.868130 -73.135162 7.304279 -4.238516 -0.673453 6.683979 27.703945 -5.687007 -2.943985 -12.555941 3.089746 2.024399 -11.523122 -16.228521 -22.261065 39.114735 4.266994 3.538062 -6.281119 -11.722174 12.000887 
6.039768 50.931595 2.087912 -2.832031 -3.876953 -132.373718 36.857189 -11.139455 -6.173686 -19.726563 6.376954 0.683594 51.553619 8.070152 2.616707 -80.126953 -9.628906 4.646804 2.000000 -2.000000 0.000000 -61.601566 19.414061 -60.800781 -70.417458 -0.501718 -2.617611 1.294125 27.429045 -15.706209 -2.000000 2.000000 0.000000 54.121094 -23.095703 -3.353439 74.445885 0.190171 -2.811812 -6.104210 -72.201767 6.390338 -4.217012 -0.751952 5.975799 27.514315 -5.579977 -3.203900 -13.197741 2.841983 1.831758 -13.826517 -17.542915 -22.545069 41.414776 4.111115 3.714323 -3.316112 -11.888769 11.996423 
5.916584 50.852497 1.925882 -2.832031 -3.876953 -131.143234 37.434040 -10.957533 -6.518537 -19.560547 6.210938 0.508869 51.553619 8.070152 2.616707 -81.455078 -9.853516 4.951171 2.000000 -2.000000 0.000000 -59.140629 18.066406 -59.462891 -72.888496 -0.365795 -2.635298 3.189902 25.419962 -14.857785 -2.000000 2.000000 0.000000 52.607426 -23.847656 -0.970745 74.789040 0.260377 -2.504579 -3.708738 -71.789299 4.146511 -3.752439 -0.887668 3.852872 26.293497 -5.775011 -2.960103 -14.621067 4.070608 1.985856 -15.966676 -18.436878 -23.122711 43.510345 3.964319 3.708719 0.369567 -11.739701 11.692573 
5.736017 50.939495 1.602172 -3.173828 -3.359375 -128.857422 37.502247 -10.820492 -7.078295 -19.560547 6.210938 0.508869 51.553619 8.070152 2.616707 -82.041016 -10.048828 5.750249 2.000000 -2.000000 0.000000 -56.113277 17.294924 -57.536156 -75.874062 -0.408880 -2.535008 5.098290 22.877621 -13.474000 -2.000000 2.000000 0.000000 51.962891 -25.136721 0.796633 74.953384 0.432462 -2.435925 -3.340638 -70.987274 4.216993 -3.490528 -0.692348 1.568933 24.513691 -5.852245 -2.763383 -15.120097 4.185337 2.114182 -18.036013 -19.108130 -23.590923 44.563892 3.886358 3.795200 4.832358 -12.322309 12.872482 
5.359346 51.232090 0.984971 -3.525390 -2.119140 -125.224976 36.611973 -10.300436 -8.381285 -19.707031 6.894531 0.255079 51.553619 8.070152 2.616707 -81.191406 -10.361327 7.441407 2.000000 -2.000000 0.000000 -53.818359 17.167969 -55.146484 -79.071594 -0.135473 -3.049629 7.763590 20.168440 -11.826294 -2.000000 2.000000 0.000000 51.123047 -27.109375 2.153754 75.129166 0.442211 -2.435359 -1.144384 -71.169243 2.393024 -3.129093 -0.078122 -0.659621 22.559597 -5.613411 -2.744660 -14.052626 3.473660 2.477434 -19.264721 -19.103867 -23.731453 43.858559 3.934830 3.920292 9.181017 -13.714943 15.045833 
4.852434 51.667030 0.825565 -4.238281 -0.175781 -120.947266 34.689697 -9.468777 -10.213505 -20.205080 7.958984 0.009766 51.553619 8.070152 2.616707 -78.789070 -11.162107 10.156250 2.000000 -2.000000 0.000000 -53.642578 17.792969 -54.489204 -81.856323 -0.342768 -2.744258 10.043187 17.511662 -10.543221 -2.000000 2.000000 0.000000 50.673828 -30.693361 3.705952 75.308342 0.634810 -2.551306 0.532167 -71.551422 1.286219 -2.425856 0.886931 -3.808424 18.505215 -5.729063 -2.311846 -11.970120 2.811048 3.135271 -17.429234 -18.606113 -24.265190 39.815399 4.227715 3.593172 11.332749 -13.418080 14.847114 
3.801182 52.426197 0.433226 -4.580078 1.923854 -116.171860 32.210423 -8.460636 -12.305742 -20.888672 9.199220 -0.263672 51.553619 8.070152 2.616707 -75.244141 -11.640624 11.289063 2.000000 -2.000000 0.000000 -54.414066 18.964842 -53.623047 -83.803535 -0.204439 -2.889178 12.409161 15.144418 -9.206216 -2.000000 2.000000 0.000000 50.517582 -34.531250 4.750323 75.296829 0.806897 -2.482652 2.247756 -71.761536 -0.328435 -2.037270 2.028202 -6.818177 15.157059 -5.683932 -1.930759 -8.779110 1.638698 3.587459 -14.187629 -17.570477 -25.085001 32.903027 4.198368 3.368423 9.175442 -12.234100 13.792203 
2.423428 52.750416 -0.051049 -4.765625 4.023438 -111.630859 29.551111 -7.778301 -14.548732 -21.552736 10.605470 -0.703125 51.553619 8.070152 2.616707 -70.878906 -11.679687 9.843750 2.000000 -2.000000 0.000000 -54.433594 19.599607 -51.227192 -84.516449 -0.038701 -2.898793 15.648136 13.098483 -7.360754 -2.000000 2.000000 0.000000 52.626957 -38.056644 2.962730 75.121307 0.817212 -2.491832 2.819966 -70.787361 -0.458109 -2.615268 3.240538 -9.629159 13.200615 -5.731117 -1.732517 -5.275803 0.682067 4.844211 -10.311431 -16.086447 -24.540016 25.749559 5.126669 1.909670 4.057964 -10.314613 12.162310 
1.620418 52.695061 -0.687529 -4.794922 5.947266 -107.373047 27.521030 -7.426862 -16.160957 -22.226564 11.679688 -0.869111 51.553619 8.070152 2.616707 -67.255859 -11.699219 8.232422 2.000000 -2.000000 0.000000 -53.437500 19.521484 -47.421875 -83.803535 -0.204439 -2.889178 19.509354 11.045344 -5.556955 -2.000000 2.000000 0.000000 57.099609 -40.615234 -1.773936 74.957314 0.645691 -2.570231 1.695616 -69.913704 0.791763 -3.503707 4.031469 -13.004224 12.163602 -5.749403 -1.613219 -3.671064 0.476277 5.240741 -7.382648 -14.816767 -25.681698 21.153179 5.241909 2.051174 -1.413520 -8.727819 10.514053 
